<svg width="300" height="300" viewBox="0 1 64 64" xmlns="http://www.w3.org/2000/svg">
  <path d="M8.95 20.647a7.51 7.51 0 0 1-5.597-5.597 13.35 13.35 0 0 1 0-6.1A7.51 7.51 0 0 1 8.95 3.353c2.006-.47 4.094-.47 6.1 0a7.51 7.51 0 0 1 5.597 5.597c.47 2.006.47 4.094 0 6.1a7.51 7.51 0 0 1-5.597 5.597c-2.006.47-4.094.47-6.1 0Z" stroke="#5ca06c" stroke-width="1.5"/>
  <path d="M8.95 20.647c2.006.47 4.094.47 6.1 0a7.51 7.51 0 0 0 5.597-5.597c.47-2.006.47-4.094 0-6.1a7.51 7.51 0 0 0-5.597-5.597 13.35 13.35 0 0 0-6.1 0A7.51 7.51 0 0 0 3.353 8.95" stroke="#fff" stroke-width="1.5" stroke-linecap="round"/>
  <circle cx="12" cy="15.5" r="1" fill="#fff"/>
  <path d="M10 10v-.5a2 2 0 0 1 2-2v0a2 2 0 0 1 2 2v.121a2.12 2.12 0 0 1-.621 1.5L12 12.5" stroke="#fff" stroke-width="1.5" stroke-linecap="round" stroke-linejoin="round"/>
  <text x="4.2" y="30" class="heavy">
    LUPA?
    <style>
      .heavy {
      font: bold 5px Lucida Sans, sans-serif;
      fill: white;
    }
    </style>
  </text>
</svg>
