<svg data-name="Layer 1" xmlns="http://www.w3.org/2000/svg" width="1009.54" height="839.64" viewBox="0 0 1009.54 839.64">
  <defs>
    <linearGradient id="a" x1="491.14" y1="640.96" x2="698.09" y2="640.96" gradientUnits="userSpaceOnUse">
      <stop offset="0" stop-color="gray" stop-opacity=".25"/>
      <stop offset=".54" stop-color="gray" stop-opacity=".12"/>
      <stop offset="1" stop-color="gray" stop-opacity=".1"/>
    </linearGradient>
  </defs>
  <path d="M586.55 111.4c-64.72-2.25-126.36-23.14-185.22-46S284.17 17.21 221 5.1c-40.63-7.79-87.1-8.89-119.83 12.89-31.51 21-41.69 57.15-47.16 90.73-4.12 25.26-6.54 51.85 4.74 75.49 7.84 16.42 21.74 30.22 31.36 45.95 33.47 54.72 9.81 122.2-26.45 175.63-17 25.07-36.75 49-49.88 75.66s-19.2 57.25-7.71 84.47c11.38 27 38.51 47.24 67.9 61.49 59.69 28.95 130 37.23 198.61 41.92 151.83 10.39 304.46 5.89 456.69 1.39 56.34-1.67 112.92-3.36 168.34-12.07 30.78-4.84 62.55-12.51 84.9-31.05 28.36-23.53 35.39-63.37 16.38-92.88-31.88-49.49-120-61.78-142.31-114.89-12.26-29.24.33-61.8 18.16-88.92 38.24-58.16 102.33-109.19 105.7-175.67 2.32-45.66-28.49-91.39-76.13-113-49.93-22.64-119.18-19.8-156 17.69-37.95 38.6-104.61 53.45-161.76 51.47" fill="#38d39f" opacity=".1"/>
  <ellipse cx="483.49" cy="780.99" rx="303.97" ry="41.12" fill="#38d39f" opacity=".1"/>
  <path d="M333.01 658.57s21-3.36 33.6 11.48c0 0-9.24 7.28-29.12-2.8Zm-2.24-.33s-13.4 16.58-6.83 34.85c0 0 10.92-4.37 12.11-26.63Zm-12-27.11s8.4-15.4 42 6.16c0 0-4.48 10.36-19.32 9.52s-18.81-7.56-22.68-15.68m-2.21-1.11s-17.43-2-19.12 37.9c0 0 11.05 2.3 18.9-10.33s4.6-19.69.22-27.57M306.4 598.2s9.8-27.17 45.37-7.85c0 0-8.12 24.93-41.73 17.09Zm-10.92-40.61s18.48-27.44 51.25-2c0 0-11.48 25.76-48.45 11.76Zm-3.92-38.64s21.56-25.2 54 0c0 0-20.45 22.12-54 6.44Zm-3.36-37.52s21.84-26.33 52.93-1.4c0 0-24.65 23.24-52.93 7.56Zm1.96-33.33s23-33.88 52.09-10.92c0 0-24.65 29.13-52.09 17.36Zm5.32-38.92s24.36-33.6 52.65-7.84c0 0-28.85 29.12-52.65 14Zm8.13-34.79s28.83-31.57 54-19c0 0-30.06 33.53-55.26 27.37Zm10.07-32.97s33.33-38.65 52.65-25.77c0 0-24.52 30-55 33.05Zm14.55-38.26s29.14-31.58 50.42-23.74c0 0-24.92 32.77-54.33 33.61Zm13.18-35.78s32.2-30.24 46.2-24.92c0 0-23.24 33.6-47.6 31.64Zm12.88-33.04s27.72-36.12 42.84-33.32c0 0-16.8 32.2-42.84 37Zm13.97-44.52s24.51-27.7 37.74-27.63c0 0-19.34 37-38.74 36.66Zm8.29-29.69 23.66-57.68s1.19 52.14-26.68 68.38Zm9.6-63.61s3.92-48.16 1.4-52.08c0 0 16.93 40-1.56 73.36Zm-80.66 501.03s-24.55-15.21-40.43 22c0 0 21.84 14.5 43.31-12.51Zm-10.79-41.51s-30.1-13.73-44.71 25.12c0 0 23.26 16 47.45-15.3Zm-4.54-34.78s-21.56-25.2-54 0c0 0 20.44 22.12 54 6.44Zm-2.69-39.83s-21.85-26.33-52.93-1.4c0 0 24.64 23.24 52.93 7.56Z" fill="#38d39f"/>
  <path d="M290.16 449.06s-15.32-37.95-48.62-21.63c0 0 18 33.66 47.27 27.93Zm7.25-40.07s-15.22-38.61-49-20.71c0 0 20.68 35.39 47.5 26.68Zm9.44-34.4s-6-42.34-33.95-46.13c0 0 5.93 44.64 30.22 53.75Zm7.55-33.1s-2.35-51-25.5-52.77c0 0 .78 38.7 22.89 60Zm16.24-39.79s-6.91-42.4-29-47.59c0 0 2.74 41.07 26.81 58Zm13.39-34.01s-.24-44.18-13.74-50.67c0 0-8.37 40 9.83 56.31Zm11.29-33.87s-1.9-45.5-15.87-51.91c0 0-4.79 36 13.77 54.88Zm14.9-40.4s-.09-37-10.07-45.68c0 0-9.92 40.54 4.86 53.12Z" fill="#38d39f"/>
  <path d="m375.37 158.31-9.7-61.59s-13.2 50.47 10.16 72.7Zm1.9-61.21s-24.93-41.39-24.41-46c0 0 2.64 43.4 34 65Zm2.92-12.22s-23.52-58.81-34.16-63.57c0 0 33.6 17.08 36.12 61.89Z" fill="#38d39f"/>
  <path d="m367.13 199.17-1.61-.49c19.85-64.73 24.81-106 13.95-116.34l1.16-1.22c11.5 10.91 6.84 51.7-13.5 118.05" fill="#444053"/>
  <path d="m312.47 350.69-2.37-.84a472 472 0 0 1 6.75-17.89c20.72-51.64 38.36-99.67 49.67-136.55l2.07-1c-11.33 36.95-28.65 86.83-49.4 138.53-2.37 5.88-4.63 11.88-6.72 17.75" fill="#444053"/>
  <path d="M362.56 707.02c-.32-.36-32.5-36.58-54.92-98.44a364.4 364.4 0 0 1-21.7-112.76c-1.54-48.13 8.56-101.87 25.86-150.68l1.88 2.2c-38.83 109.56-23.4 203.45-2.94 260 22.2 61.29 54 97.13 54.32 97.48Z" fill="#444053"/>
  <rect x="642.8" y="289.82" width="8.86" height="73.02" rx="2.29" ry="2.29" fill="#3a3768"/>
  <rect x="348.37" y="232.61" width="4.97" height="24.04" rx="2.29" ry="2.29" fill="#3a3768"/>
  <rect x="348.19" y="276.63" width="5.6" height="41.84" rx="2.29" ry="2.29" fill="#3a3768"/>
  <rect x="348.28" y="333.11" width="5.33" height="42.2" rx="2.29" ry="2.29" fill="#3a3768"/>
  <rect x="351.18" y="153.17" width="296.4" height="602.39" rx="38.99" ry="38.99" fill="#3a3768"/>
  <path d="M605.77 168.82h-34v4.09a19.38 19.38 0 0 1-19.39 19.38H444.25a19.38 19.38 0 0 1-19.39-19.38v-4.09h-31.83a23.54 23.54 0 0 0-23.54 23.54v523.97a23.54 23.54 0 0 0 23.54 23.54h212.74a23.54 23.54 0 0 0 23.54-23.54V192.4a23.54 23.54 0 0 0-23.54-23.58" fill="#00000"/>
  <rect x="470.79" y="171.16" width="41.39" height="8.4" rx="3.87" ry="3.87" fill="#e6e8ec"/>
  <circle cx="523.21" cy="175.36" r="4.77" fill="#e6e8ec"/>
  <path d="M750.2 126.75s-84.2-5.08-74.28 53.92c0 0-2 10.43 7.48 15.16 0 0 .15-4.37 8.64-2.88a39.5 39.5 0 0 0 9.15.44 19.06 19.06 0 0 0 11.18-4.57s23.67-9.78 32.87-48.46c0 0 6.81-8.44 6.54-10.61l-14.21 6.07s4.86 10.25 1 18.77c0 0-.46-18.4-3.19-18-.55.08-7.38 3.55-7.38 3.55s8.35 17.85 2.05 30.83c0 0 2.39-22-4.66-29.54l-10 5.84s9.76 18.44 3.14 33.49c0 0 1.7-23.08-5.25-32.07l-9.06 7.07s9.17 18.17 3.58 30.65c0 0-.73-26.86-5.54-28.89 0 0-7.93 7-9.14 9.86 0 0 6.28 13.2 2.38 20.16 0 0-2.39-17.9-4.35-18 0 0-7.9 11.86-8.72 20 0 0 .34-12.09 6.81-21.12 0 0-7.64 1.31-12.1 6.26 0 0 1.23-8.38 14.05-9.12 0 0 6.53-9 8.27-9.54 0 0-12.74-1.07-20.47 2.36 0 0 6.8-7.91 22.81-4.31l8.95-7.31s-16.78-2.29-23.9.24c0 0 8.19-7 26.31-1.9l9.74-5.82s-14.31-3.08-22.83-2c0 0 9-4.85 25.69.41l7-3.13s-10.48-2.06-13.55-2.39-3.23-1.17-3.23-1.17a36.35 36.35 0 0 1 19.69 2.19s14.78-5.51 14.53-6.44m-86.37-26.24s-38-2.29-33.56 24.37c0 0-.89 4.71 3.38 6.85 0 0 .07-2 3.91-1.31a17.5 17.5 0 0 0 4.13.2 8.56 8.56 0 0 0 5.05-2.08s10.7-4.42 14.86-21.9c0 0 3.07-3.81 2.95-4.79l-6.42 2.74s2.19 4.63.47 8.48c0 0-.21-8.31-1.44-8.12-.25 0-3.34 1.61-3.34 1.61s3.78 8.07.93 13.93c0 0 1.08-9.94-2.11-13.35l-4.52 2.68s4.41 8.33 1.42 15.13c0 0 .77-10.43-2.37-14.49l-4.09 3.2s4.14 8.21 1.62 13.85c0 0-.34-12.14-2.51-13.06 0 0-3.58 3.16-4.13 4.46 0 0 2.84 6 1.08 9.11 0 0-1.08-8.09-2-8.13 0 0-3.57 5.36-3.94 9a19.5 19.5 0 0 1 3.08-9.54 10.76 10.76 0 0 0-5.47 2.83s.56-3.79 6.35-4.12c0 0 3-4.07 3.74-4.32 0 0-5.76-.48-9.25 1.07 0 0 3.07-3.57 10.3-1.95l4-3.3s-7.59-1-10.8.11c0 0 3.7-3.16 11.89-.86l4.4-2.63s-6.47-1.39-10.32-.89c0 0 4.07-2.19 11.61.18l3.15-1.41s-4.74-.93-6.13-1.08-1.46-.53-1.46-.53a16.4 16.4 0 0 1 8.9 1s6.76-2.52 6.64-2.94" fill="#38d39f"/>
  <ellipse cx="864.17" cy="773.34" rx="26.93" ry="4.55" fill="#38d39f" opacity=".1"/>
  <ellipse cx="91.09" cy="810.68" rx="26.93" ry="4.55" fill="#38d39f" opacity=".1"/>
  <ellipse cx="195.26" cy="835.09" rx="26.93" ry="4.55" fill="#38d39f" opacity=".1"/>
  <ellipse cx="805.22" cy="822.1" rx="40.21" ry="6.8" fill="#38d39f"/>
  <path d="M821.85 810.98a11.7 11.7 0 0 0 3.83-5.79c.5-2.29-.48-5-2.68-5.89-2.46-.94-5.09.77-7.08 2.49s-4.28 3.69-6.89 3.32a10.48 10.48 0 0 0 3.25-9.81 4.13 4.13 0 0 0-.91-2c-1.36-1.46-3.84-.84-5.47.32-5.2 3.65-6.65 10.72-6.68 17.07-.53-2.29-.08-4.68-.1-7s-.65-5-2.64-6.23a7.94 7.94 0 0 0-4-.94c-2.34-.09-4.94.15-6.54 1.86-2 2.12-1.46 5.68.26 8s4.35 3.81 6.77 5.42a15 15 0 0 1 4.83 4.61 4 4 0 0 1 .36.83h14.61a41 41 0 0 0 9.08-6.26m-625.2-87.71s5.5 7.19-2.53 18-14.65 20-12 26.77c0 0 12.12-20.15 22-20.43s3.38-12.22-7.47-24.34" fill="#38d39f"/>
  <path d="M196.65 723.27a8.8 8.8 0 0 1 1.12 2.26c9.62 11.3 14.75 21.85 5.5 22.11-8.61.25-18.94 15.65-21.42 19.54.08.3.18.59.29.89 0 0 12.12-20.15 22-20.43s3.36-12.25-7.49-24.37" opacity=".1"/>
  <path d="M206.86 732.43c0 2.53-.28 4.58-.63 4.58s-.63-2.05-.63-4.58.35-1.34.7-1.34.56-1.19.56 1.34" fill="#ffd037"/>
  <path d="M210.37 735.45c-2.22 1.21-4.16 1.94-4.32 1.63s1.49-1.54 3.71-2.75 1.35-.33 1.51 0 1.32-.09-.9 1.12" fill="#ffd037"/>
  <path d="M167.64 723.27s-5.5 7.19 2.53 18 14.65 20 12 26.77c0 0-12.11-20.15-22-20.43s-3.4-12.22 7.47-24.34" fill="#38d39f"/>
  <path d="M167.64 723.27a9 9 0 0 0-1.13 2.26c-9.62 11.3-14.74 21.85-5.5 22.11 8.62.25 18.95 15.65 21.43 19.54a8 8 0 0 1-.3.89s-12.11-20.15-22-20.43-3.37-12.25 7.5-24.37" opacity=".1"/>
  <path d="M157.42 732.43c0 2.53.29 4.58.64 4.58s.63-2.05.63-4.58-.35-1.34-.7-1.34-.57-1.19-.57 1.34" fill="#ffd037"/>
  <path d="M153.92 735.45c2.22 1.21 4.15 1.94 4.32 1.63s-1.5-1.54-3.72-2.75-1.34-.33-1.51 0-1.31-.09.91 1.12" fill="#ffd037"/>
  <path d="M159.17 767.13s15.36-.48 20-3.77 23.63-7.24 24.77-1.95 23.09 26.29 5.75 26.43-40.3-2.7-44.92-5.51-5.6-15.2-5.6-15.2" fill="#a8a8a8"/>
  <path d="M209.99 786c-17.34.14-40.3-2.7-44.92-5.51-3.51-2.15-4.92-9.84-5.39-13.38h-.51s1 12.38 5.59 15.2 27.58 5.65 44.92 5.51c5 0 6.73-1.82 6.64-4.46-.7 1.62-2.61 2.61-6.33 2.64" opacity=".2"/>
</svg>
