<svg width="300" height="500" viewBox="0 7 64 64" xmlns="http://www.w3.org/2000/svg">
  <path d="M18.68 10.74a26.6 26.6 0 0 1 11.25-3.53c4.25-.21 8.15.79 13.56 3.38s8.4 5.06 10.69 9.31 3.53 7.38 2.28 12.91-1.63 11.09-3.85 14.93-5.93 6.5-11.43 7.88-13.32 2.28-20.07-1.44-11.5-9.25-13.25-16.9-.31-11.63 1-15.22a23.64 23.64 0 0 1 9.82-11.32" fill="#1d1d1b"/>
  <path d="M20.55 11.31a22.9 22.9 0 0 1 7.69-2.6c4-.47 10.47 1.32 11.15 1.63s1.25.5 1 .69-2.53 2.18-3.34 2.31-3.62-.56-5.75-.47-3.56.5-4.59.5-2.5-1.13-3.5-1.22-3.13-.59-2.66-.84" fill="#5ad04c"/>
  <path d="M18.58 12.87a5.82 5.82 0 0 1 4.16.34c1.62.88 1.44 1.25 3.65 1.22s3.29-.4 3.94-.25 3.41 1.35 5.85.88a10.4 10.4 0 0 0 4.28-1.75c.72-.47 1.15-1.25 1.59-1.19s4.41 2.41 4.34 2.66a4.5 4.5 0 0 1-1.71 1.5 7.43 7.43 0 0 0-2.79 3.46c-.5 1.47-.78 5.88-.12 6.32s2.34-.19 3 .31.81 2.06 1.91 2.19 1.56-.69 2.56 0 1 1.21 2.56 1.25 3-.32 3.09 0a2.47 2.47 0 0 1-.12 1.43c-.16.1-5.44.72-6.69.79s-1 .34-1.69 0-1.78-1.63-3.39-1.88-6.53-.56-7.5-.56-1.25 0-1.35.47.1 5.18-.4 6.72-.16 4.06 1.65 4.78 3.69 1.09 3.94 1.75 1.13 5 1.91 6.47 1.87 3.15 1.5 3.46a20.3 20.3 0 0 1-6 1.54 23.6 23.6 0 0 1-5.78 0s-1.16-6-1.47-6.54a4.67 4.67 0 0 1-.41-2.34c.13-.41 2.34-4.87 2.06-6s-.72-2.28-1.75-2.56-2.75 0-5.53 0a28 28 0 0 1-5.34-.44c-.56-.12-.88 0-1.13-.28s-2.28-4-2-4.34 3.13-1.16 3.25-1.82-.06-2.25.66-2.31 3.87.38 4.87-.15 1.13-1.75 1.16-2.82-.37-3.4-.84-3.84-5-1.81-6.72-2.72S14.61 17 14.8 16.4a12.45 12.45 0 0 1 3.78-3.53" fill="#157cea"/>
  <path d="M20.49 15c.54-.07.59.35.4.72s0 1.72.6 1.69a56 56 0 0 1 6.4-1.06 26.4 26.4 0 0 1 8 1.65c.75.41 1.1 2 1.16 2.47A29.4 29.4 0 0 1 34.3 26c-.28.15-3.19-1-5.28-2s-3-1.47-3.09-1.88a6.2 6.2 0 0 0-.5-1.69c-.19-.09-3-.28-4.35-1.09s-2.56-2.13-2.31-2.69A4.2 4.2 0 0 1 20.49 15" fill="#1d1d1"/>
  <path d="M24.36 17.87a20.8 20.8 0 0 1 7.25.31c3.19.63 3.69 1.16 3.6 1.94s-1.28 4-1.72 3.84a42 42 0 0 1-5.31-2.18c-.22-.32-.29-1.88-1.22-2.16s-2.88-.88-3.53-1.13-.5-.5-.35-.5 1.28-.12 1.28-.12m23.22-2.66c.21-.07 2.94 1.07 4.81 4.63s2.47 7.94 2.25 8.34-.9.44-1.53.25-3.11-1.56-3.65-1.56-1.41.47-1.78 0S46.18 25 45.05 25s-1.37.19-1.56-.06-.81-5.53.37-6.5 2.22-1.59 2.69-2 .75-1.13 1.03-1.23M35.71 31c.36 0 5.72-.4 6.78.63s1.94 2.15 2.84 2.12 9.19-.75 9.19-.43-.94 7.5-2.38 11.15a15.9 15.9 0 0 1-5.53 7.06c-1.15.66-2.34.91-2.43.72a21.8 21.8 0 0 1-2.29-5.93c-.68-3.22-.87-4.72-1.93-5s-3.69-.9-4.19-1.53a4 4 0 0 1-.56-1.87s.28-3.88.28-4.72.03-2.2.22-2.2m-18.28 7.21a12.7 12.7 0 0 0 4.84.91c3.31.06 6.56-.31 6.91.09s.28 1.78-.44 3.1a21 21 0 0 0-1.19 2.59 26 26 0 0 0-3.16-2.5.59.59 0 0 0-.34.69c.13.28 3 2.22 3.13 2.47a10 10 0 0 1-.1 1.75 26 26 0 0 0-3-2.38c-.37-.06-.62.85-.5 1s3.53 2.5 4 2.91a6.1 6.1 0 0 1 .84 2.53c-.09 0-3.9-3.09-4.12-3.13s-.28 1-.28 1 4.5 3.19 4.65 3.44a6.5 6.5 0 0 1 .44 1.88 33 33 0 0 1-3.59-.91c-1.25-.47-2.35-.72-2.35-.81s-1.17-3.78-2.81-5.38A13 13 0 0 1 18 44.81a31 31 0 0 1-.35-3.72c-.04-.85-.41-2.88-.22-2.88" fill="#5ad04c"/>
  <path d="M10.52 38.4c.19-.37 2.56.25 3.69.69s1.5 1 1.53 1.87-.13 4.66.65 5.35a10.7 10.7 0 0 1 3.07 3.28 7.3 7.3 0 0 1 1 2.19 20.15 20.15 0 0 1-5.91-5.5c-3.19-4.13-4.12-7.69-4.03-7.88" fill="#157cea"/>
  <path d="M9.61 36.18a17.66 17.66 0 0 1-.12-9.65c1.37-5.69 4-8.72 4.22-8.69s5.4 3 7.5 4 2.22 1 2.37 1.44a10.1 10.1 0 0 1-.19 3.34c-.18.09-3.93-.09-5 0s-1.39 1.59-1.31 2.19.13.87-.12 1.06-3.6 1.09-3.78 2 2.37 5.37 2 5.5-4.57-.16-5.57-1.19" fill="#5ad04c"/>
  <path d="M11.36 25.18a19 19 0 0 1 1.16-3.65c.5-.75.72-.91.94-.85s.84.35.78.53-1.13 2.25-1.41 3.16 0 .91-.4 1-.94.03-1.07-.19M40 15.59c.16-.14 2.53-.72 2.69-.5s.34.44.18.56a11.8 11.8 0 0 1-2.62.94c-.2-.1-.45-.85-.25-1m-1.54 7.34c.15.16 1.47 2.28 1.31 2.47s0 .47-.34.31a6.2 6.2 0 0 1-1.54-2.22c.11-.25.57-.56.57-.56M37 24.37a12.2 12.2 0 0 1 1.72 2.09c0 .19 0 .47-.31.38A8 8 0 0 1 36.55 25c0-.16.45-.66.45-.63m12.33-4.72a7.2 7.2 0 0 1 2.5 1.22c0 .19.1.69-.15.59s-2.54-1-2.63-1.12.25-.66.28-.69M49.11 22c.08-.11 4 2.18 4 2.53s.35.59-.06.53a30 30 0 0 1-4.25-2.16c-.12-.19.2-.75.31-.9m-.37 2a25.4 25.4 0 0 1 4.84 2.62c.06.28.28.59-.12.56a41 41 0 0 1-4.94-2.37c-.09-.13.09-.75.22-.81m.94 11.53a13.2 13.2 0 0 1 2.9 2.78c-.09.25 0 .37-.28.28a22.4 22.4 0 0 1-3.12-2.72c.06-.16.34-.28.5-.34m-1.57 1.9a28.4 28.4 0 0 1 3.35 3.16c0 .25-.13.47-.25.44a42 42 0 0 1-3.44-3 5 5 0 0 1 .34-.6m-1 2.03a23.4 23.4 0 0 1 3.35 3.32c-.07.25.06.4-.25.37A39 39 0 0 1 46.68 40a3.2 3.2 0 0 1 .43-.54m-.78 1.66a29 29 0 0 1 3.41 3.28c0 .25-.1.41-.22.31a44 44 0 0 1-3.84-3.09.84.84 0 0 1 .65-.5m-.62 3a16 16 0 0 1 3.06 2.72c0 .22-.16.37-.25.34a34 34 0 0 1-3.19-2.5c-.03-.19.31-.53.38-.56M45 45.93c.17 0 3.25 2.69 3 2.94s-.12.37-.37.28a22.3 22.3 0 0 1-3.13-2.69c.11-.15.33-.53.5-.53m-9.82-2.5c.09-.14 1.31.31 1.28.6s0 .34-.16.34a5 5 0 0 1-1.53-.44c0-.12.34-.4.41-.5m-2.04 3.85a1.46 1.46 0 0 1 1.16 0c.47.22 1.16 1 1.78 1.1s1.1-.28 1.25-.19a.37.37 0 0 1 .16.47c-.1.16-.16.31-.41.37a2 2 0 0 1-1.5-.15C35 48.49 34.64 48 34 48s-.57.12-.69 0-.42-.51-.17-.72M26 40.15c.25.16 2.06 1.75 2 2s-.19.5-.38.44a10 10 0 0 1-2.15-1.82c-.01-.24.53-.62.53-.62m-1.79-9.72c.12 0 2.81 4.19 2.59 4.41s-.34.44-.47.31a45 45 0 0 1-2.84-4.34 1.3 1.3 0 0 1 .72-.38m1.03-.43c0-.12.59-.38.78-.19a12 12 0 0 1 1.37 2.72c-.09.18 0 .47-.25.28a17.6 17.6 0 0 1-1.9-2.81m5.5-.29c.08-.11 1-1 1.28-1s1 0 .91.22-1.41 1.91-1.66 1.75a1.66 1.66 0 0 1-.53-.97" fill="#1d1d1b"/>
  <text x="-1" y="85" class="heavy">
    BMKG
    <style>
      .heavy {
      font: bold 22px Lucida Sans, sans-serif;
      fill: white;
    }
    </style>
  </text>
</svg>
