<svg xmlns="http://www.w3.org/2000/svg" viewBox="0 0 1000 600" id="web-exploring"><g><circle cx="402.522" cy="298.441" r="206.878" fill="#d9ebff"></circle><rect width="46.323" height="46.323" x="409.627" y="444.094" fill="#a9c0ff"></rect><circle cx="726.964" cy="199.576" r="95.002" fill="#d9ebff"></circle><g opacity=".28"><rect width="54.295" height="79.887" x="731.412" y="231.08" fill="#6299e8" rx="3"></rect></g><g opacity=".19"><path fill="#aaa" d="M749.00068,438.051l-7.28731,39.02271a42.33789,42.33789,0,0,1-32.20271,33.49545,41.6971,41.6971,0,0,1-9.40554,1.05878,43.09931,43.09931,0,0,1-5.82971-.39881,38.80985,38.80985,0,0,1-4.35868-.85233,41.541,41.541,0,0,1-8.96579-3.34153,42.27615,42.27615,0,0,1-22.45338-29.96159l-7.288-39.02271Z"></path></g><path fill="#4d76b8" d="M782.125,483.8208H724.209a13.39473,13.39473,0,0,1-13.37988-13.37988v-8.91016A13.39473,13.39473,0,0,1,724.209,448.15088h57.916a13.39473,13.39473,0,0,1,13.37988,13.37988v8.91016A13.39473,13.39473,0,0,1,782.125,483.8208Zm-57.916-32.66992a10.39145,10.39145,0,0,0-10.37988,10.37988v8.91016A10.39145,10.39145,0,0,0,724.209,480.8208h57.916a10.39145,10.39145,0,0,0,10.37988-10.37988v-8.91016A10.39145,10.39145,0,0,0,782.125,451.15088Z"></path><path fill="#d9ebff" d="M768.15459,432.49062l-7.28731,39.0227a42.33789,42.33789,0,0,1-32.20271,33.49546,41.6971,41.6971,0,0,1-9.40554,1.05878,43.10093,43.10093,0,0,1-5.82971-.39881,38.80985,38.80985,0,0,1-4.35868-.85233,41.541,41.541,0,0,1-8.96579-3.34153,42.27615,42.27615,0,0,1-22.45338-29.96159l-7.288-39.02271Z"></path><path fill="#4d76b8" d="M688.89326,493.21105a42.29331,42.29331,0,0,0,60.73154,0Z"></path><polygon fill="#4d76b8" points="671.536 438.761 766.983 438.761 768.155 432.491 670.364 432.491 671.536 438.761"></polygon><g opacity=".5"><path fill="#fff" d="M722.64162,432.49059a154.38449,154.38449,0,0,1-13.5713,72.32582,41.36034,41.36034,0,0,1-4.59609-1.4181,42.023,42.023,0,0,1-4.36911-1.92331,115.52859,115.52859,0,0,0,12.95294-68.98442Z"></path></g><g opacity=".5"><path fill="#fff" d="M742.27733,432.49059a180.48958,180.48958,0,0,1-13.61257,72.51819,42.5127,42.5127,0,0,1-9.40584,1.05866,43.08814,43.08814,0,0,1-5.82947-.39871,180.53056,180.53056,0,0,0,13.72239-73.17814Z"></path></g><rect width="41.595" height="2" x="198.127" y="369.011" fill="#a9c0ff"></rect><rect width="41.595" height="2" x="196.614" y="356.742" fill="#a9c0ff"></rect><rect width="41.595" height="2" x="199.565" y="382.343" fill="#a9c0ff"></rect><rect width="41.595" height="2" x="500.177" y="158.938" fill="#a9c0ff"></rect><rect width="41.595" height="2" x="498.664" y="146.67" fill="#a9c0ff"></rect><rect width="41.595" height="2" x="501.615" y="172.271" fill="#a9c0ff"></rect><path fill="#d9ebff" d="M697.0993 358.363a8.16076 8.16076 0 01-.36542 3.62279 12.45209 12.45209 0 01-1.85508 3.20079 11.38239 11.38239 0 00-1.7153 2.85849 8.037 8.037 0 00.27623 6.07659 11.33084 11.33084 0 001.91432 2.5796 12.81654 12.81654 0 012.25178 3.21094 9.84423 9.84423 0 01-.00333 8.0345 12.98055 12.98055 0 01-2.25046 3.21044 11.30238 11.30238 0 00-1.91165 2.57927 8.04948 8.04948 0 00-.73018 2.9758 7.96811 7.96811 0 00.45861 3.09912 11.36127 11.36127 0 001.714 2.85833 12.46427 12.46427 0 011.85374 3.20262 8.15473 8.15473 0 01.36276 3.62378 9.04725 9.04725 0 00-1.05167-3.31194 12.54187 12.54187 0 00-2.18322-2.64583 12.61922 12.61922 0 01-2.32367-2.98929 9.35131 9.35131 0 01-.95783-3.83612 9.18646 9.18646 0 01.68093-3.96076 13.60567 13.60567 0 012.124-3.27 11.4845 11.4845 0 001.78851-2.636 7.91832 7.91832 0 00.00466-5.837 11.561 11.561 0 00-1.78518-2.637 13.6424 13.6424 0 01-2.126-3.26636 9.1816 9.1816 0 01-.68292-3.95942 9.31115 9.31115 0 01.95649-3.835 12.55951 12.55951 0 012.32234-2.98912 12.53285 12.53285 0 002.18323-2.64649A9.03957 9.03957 0 00697.0993 358.363zM725.60238 335.97882a8.16148 8.16148 0 01-.36543 3.623 12.45058 12.45058 0 01-1.85507 3.20062 11.38824 11.38824 0 00-1.7153 2.8585 8.037 8.037 0 00.27623 6.07658 11.33112 11.33112 0 001.91431 2.57961 12.81732 12.81732 0 012.25179 3.2111 9.844 9.844 0 01-.00333 8.03434 12.985 12.985 0 01-2.25046 3.2106 11.30238 11.30238 0 00-1.91165 2.57927 8.04548 8.04548 0 00-.27158 6.07492 11.36028 11.36028 0 001.714 2.85816 12.46306 12.46306 0 011.85374 3.20279 8.15483 8.15483 0 01.36276 3.62379 9.04713 9.04713 0 00-1.05167-3.31212 12.54074 12.54074 0 00-2.18323-2.64566 12.62353 12.62353 0 01-2.32367-2.98946 9.35055 9.35055 0 01-.95782-3.83612 9.18552 9.18552 0 01.68093-3.96058 13.60632 13.60632 0 012.124-3.27018 11.48471 11.48471 0 001.78851-2.636 7.91834 7.91834 0 00.00466-5.837 11.56469 11.56469 0 00-1.78518-2.637 13.64138 13.64138 0 01-2.126-3.26618 9.18243 9.18243 0 01-.68293-3.9596 9.30966 9.30966 0 01.9565-3.83478 12.55616 12.55616 0 012.32234-2.98913 12.53373 12.53373 0 002.18322-2.64666A9.03929 9.03929 0 00725.60238 335.97882zM747.63406 365.56252a8.93539 8.93539 0 01-.401 3.97583 13.66177 13.66177 0 01-2.035 3.51236 12.49742 12.49742 0 00-1.88237 3.13691 8.81992 8.81992 0 00.30314 6.66844 12.41309 12.41309 0 002.10076 2.83085 14.06554 14.06554 0 012.47111 3.52386 10.80267 10.80267 0 01-.00366 8.81687 14.264 14.264 0 01-2.46964 3.52313 12.38663 12.38663 0 00-2.09785 2.83067 8.83373 8.83373 0 00-.29875 6.66661 12.47013 12.47013 0 001.88163 3.13655 13.6743 13.6743 0 012.03356 3.51473 8.9385 8.9385 0 01.3981 3.97674 9.92749 9.92749 0 00-1.15338-3.63471 13.76771 13.76771 0 00-2.39587-2.90353 13.84814 13.84814 0 01-2.55-3.28044 10.23846 10.23846 0 01-1.05111-4.20976 10.06921 10.06921 0 01.74725-4.34634 14.94861 14.94861 0 012.33013-3.58869 12.60777 12.60777 0 001.96344-2.89276 8.68965 8.68965 0 00.00512-6.40548 12.69172 12.69172 0 00-1.95906-2.89385 14.94775 14.94775 0 01-2.333-3.58431 10.08827 10.08827 0 01-.75017-4.34525 10.23032 10.23032 0 011.05038-4.20847 13.78184 13.78184 0 012.54854-3.28008 13.79905 13.79905 0 002.39587-2.90444A9.90529 9.90529 0 00747.63406 365.56252z"></path><rect width="637.92" height="9" x="193.947" y="504.816" fill="#456ba3"></rect><circle cx="432.374" cy="139.229" r="35.748" fill="#fff"></circle><path fill="#92b1ef" d="M436.29329,162.71065c0,2.39486-2.03875,3.64856-4.054,3.64856s-4.054-1.2537-4.054-3.64856a.70321.70321,0,0,1,.70328-.70339H435.59a.70322.70322,0,0,1,.70329.70339Zm0,0"></path><path fill="#4d76b8" d="M439.60774,154.50742v4.98608a3.80586,3.80586,0,0,1-3.80413,3.8037H428.675a3.80586,3.80586,0,0,1-3.80413-3.8037v-4.98608a.80906.80906,0,0,1,.80911-.80911h13.11864a.80907.80907,0,0,1,.80912.80911Zm0,0"></path><path fill="#92b1ef" d="M446.78392 136.73886a14.43883 14.43883 0 01-4.13953 10.16365 8.74537 8.74537 0 00-1.44669 4.41474c0 3.21456-2.05817 3.93013-2.14663 3.958a.79213.79213 0 01-.25245.04132H425.89575a.80866.80866 0 01-.33411-.0725c-.46951-.21576-2.00045-1.12521-2.00045-3.899v-.17995c0-1.61823 0-2.3734-1.014-3.57531a14.54914 14.54914 0 1124.23672-10.851zm0 0M455.90544 137.38744h-6.24959a.80911.80911 0 110-1.61822h6.24959a.80911.80911 0 010 1.61822zM444.10414 124.813a.80935.80935 0 01-.57177-1.381l4.49856-4.49856a.8093.8093 0 111.14452 1.14452l-4.50277 4.49727a.80747.80747 0 01-.56854.23777zm-29.01168 12.57448h-6.24959a.80911.80911 0 010-1.61822h6.24959a.80911.80911 0 110 1.61822zm5.55171-12.57448a.80719.80719 0 01-.57188-.23777l-4.49856-4.49856a.80929.80929 0 011.14451-1.14452l4.49857 4.49856a.809.809 0 01-.57145 1.381zm0 0M432.51322 119.96669a.80934.80934 0 01-.80912-.80911V112.908a.80912.80912 0 111.61823 0v6.24959a.80906.80906 0 01-.80911.80911zm0 0"></path><path fill="#d9ebff" d="M443.623,137.328a.53934.53934,0,0,1-.53941-.53942,10.68031,10.68031,0,0,0-10.66724-10.66724.53941.53941,0,1,1,0-1.07882,11.75911,11.75911,0,0,1,11.74606,11.74606.53941.53941,0,0,1-.53941.53942Zm0,0"></path><path fill="#4d76b8" d="M432.374,176.47705a37.248,37.248,0,1,1,37.24805-37.248A37.29032,37.29032,0,0,1,432.374,176.47705Zm0-71.49609a34.248,34.248,0,1,0,34.24805,34.248A34.287,34.287,0,0,0,432.374,104.981Z"></path><path fill="#6299e8" d="M409.62713,487.41638V447.09356a3,3,0,0,0-3-3h-8.3999a3,3,0,0,0-3,3V501.8164a3,3,0,0,0,3,3h54.7229a3,3,0,0,0,3-3v-8.4a3,3,0,0,0-3-3h-40.323A3,3,0,0,1,409.62713,487.41638Z"></path><path fill="#c2d5ff" d="M439.98858,490.41638v14.4h43.323a3,3,0,0,0,3-3v-8.4a3,3,0,0,0-3-3Z"></path><rect width="266.4" height="192.863" x="281.319" y="251.23" fill="#6299e8" rx="6"></rect><path fill="#4d76b8" d="M541.71924,445.59375H287.31934a7.50851,7.50851,0,0,1-7.5-7.5V257.23047a7.50851,7.50851,0,0,1,7.5-7.5h254.3999a7.5082,7.5082,0,0,1,7.5,7.5V438.09375A7.5082,7.5082,0,0,1,541.71924,445.59375ZM287.31934,252.73047a4.50491,4.50491,0,0,0-4.5,4.5V438.09375a4.50491,4.50491,0,0,0,4.5,4.5h254.3999a4.50492,4.50492,0,0,0,4.5-4.5V257.23047a4.50492,4.50492,0,0,0-4.5-4.5Z"></path><rect width="266.4" height="192.863" x="298.027" y="251.23" fill="#fff" rx="6"></rect><rect width="226.1" height="153.276" x="318.177" y="271.024" fill="#d9ebff" rx="6"></rect><path fill="#4d76b8" d="M558.42725,445.59375H304.02734a7.50852,7.50852,0,0,1-7.5-7.5V257.23047a7.50852,7.50852,0,0,1,7.5-7.5H558.42725a7.5082,7.5082,0,0,1,7.5,7.5V438.09375A7.5082,7.5082,0,0,1,558.42725,445.59375ZM304.02734,252.73047a4.50492,4.50492,0,0,0-4.5,4.5V438.09375a4.50492,4.50492,0,0,0,4.5,4.5H558.42725a4.50492,4.50492,0,0,0,4.5-4.5V257.23047a4.50492,4.50492,0,0,0-4.5-4.5Z"></path><path fill="#a9c0ff" d="M538.277 271.0238H324.17742a6 6 0 00-6 6v16.52179H544.277V277.0238A6 6 0 00538.277 271.0238zM318.17742 405.15326v13.14691a6 6 0 006 6H538.277a6 6 0 006-6V405.15326z"></path><rect width="79.2" height="2" x="334.827" y="306.628" fill="#456ba3"></rect><rect width="79.2" height="2" x="334.827" y="323.712" fill="#456ba3"></rect><rect width="193.12" height="2" x="334.827" y="340.795" fill="#456ba3"></rect><rect width="193.12" height="2" x="334.827" y="357.878" fill="#456ba3"></rect><rect width="193.12" height="2" x="334.827" y="374.961" fill="#456ba3"></rect><rect width="193.12" height="2" x="334.827" y="392.044" fill="#456ba3"></rect><g opacity=".28"><rect width="157.416" height="113.963" x="441.679" y="213.697" fill="#6299e8" rx="6"></rect></g><rect width="157.416" height="113.963" x="456.799" y="198.893" fill="#fff" rx="6"></rect><rect width="157.416" height="3" x="456.799" y="224.018" fill="#a9c0ff"></rect><path fill="#4d76b8" d="M608.21484,314.35547H462.79932a7.5082,7.5082,0,0,1-7.5-7.5V204.89307a7.50819,7.50819,0,0,1,7.5-7.5H608.21484a7.50819,7.50819,0,0,1,7.5,7.5v101.9624A7.5082,7.5082,0,0,1,608.21484,314.35547ZM462.79932,200.39307a4.50491,4.50491,0,0,0-4.5,4.5v101.9624a4.50492,4.50492,0,0,0,4.5,4.5H608.21484a4.50492,4.50492,0,0,0,4.5-4.5V204.89307a4.50491,4.50491,0,0,0-4.5-4.5Z"></path><rect width="50.105" height="50.105" x="474.667" y="233.845" fill="#d9ebff" rx="2"></rect><rect width="60.48" height="13.272" x="531.907" y="233.845" fill="#a9c0ff" rx="2"></rect><rect width="34.667" height="7.608" x="514.574" y="294.638" fill="#a9c0ff" rx="2"></rect><rect width="60.48" height="13.272" x="531.907" y="252.262" fill="#a9c0ff" rx="2"></rect><rect width="60.48" height="13.272" x="531.907" y="270.678" fill="#a9c0ff" rx="2"></rect><g opacity=".28"><rect width="157.416" height="113.963" x="219.319" y="163.155" fill="#6299e8" rx="6"></rect></g><rect width="157.416" height="113.963" x="196.596" y="148.351" fill="#fff" rx="6"></rect><rect width="157.416" height="3" x="196.597" y="173.476" fill="#a9c0ff"></rect><path fill="#4d76b8" d="M348.01221,263.814H202.59668a7.5082,7.5082,0,0,1-7.5-7.5V154.35156a7.5082,7.5082,0,0,1,7.5-7.5H348.01221a7.5082,7.5082,0,0,1,7.5,7.5V256.314A7.5082,7.5082,0,0,1,348.01221,263.814ZM202.59668,149.85156a4.50492,4.50492,0,0,0-4.5,4.5V256.314a4.50491,4.50491,0,0,0,4.5,4.5H348.01221a4.50492,4.50492,0,0,0,4.5-4.5V154.35156a4.50493,4.50493,0,0,0-4.5-4.5Z"></path><rect width="114.317" height="13.272" x="218.146" y="186.304" fill="#a9c0ff" rx="2"></rect><rect width="114.317" height="13.272" x="218.146" y="204.72" fill="#a9c0ff" rx="2"></rect><rect width="114.317" height="3" x="218.146" y="227.018" fill="#4d76b8"></rect><rect width="114.317" height="3" x="218.146" y="235.345" fill="#4d76b8"></rect><rect width="114.317" height="3" x="218.146" y="243.673" fill="#4d76b8"></rect><path fill="#4d76b8" d="M583.64355 248.63867a8.09107 8.09107 0 118.09131-8.09131A8.10023 8.10023 0 01583.64355 248.63867zm0-13.18213a5.09107 5.09107 0 105.09131 5.09082A5.09654 5.09654 0 00583.64355 235.45654zM708.77734 237.82861a16.3042 16.3042 0 1116.3042-16.3042A16.32258 16.32258 0 01708.77734 237.82861zm0-29.6084a13.3042 13.3042 0 1013.3042 13.3042A13.31931 13.31931 0 00708.77734 208.22021z"></path><path fill="#4d76b8" d="M708.77734 229.84033a8.31592 8.31592 0 118.31592-8.31592A8.32528 8.32528 0 01708.77734 229.84033zm0-13.63183a5.31592 5.31592 0 105.31592 5.31591A5.322 5.322 0 00708.77734 216.2085zM665.54346 251.81494h-4.03418a7.01557 7.01557 0 01-7.00782-7.00781 3.978 3.978 0 00-1.20312-2.86328 4.04673 4.04673 0 00-2.88721-1.14356l-60.145 1.24659-.0625-2.999 60.145-1.24658a7.00681 7.00681 0 017.15283 7.00586 4.0123 4.0123 0 004.00782 4.00781h4.03418a4.01229 4.01229 0 004.00781-4.00781V227.03174a7.01537 7.01537 0 017.00732-7.00733h18.37549v3H676.55859a4.01209 4.01209 0 00-4.00732 4.00733v17.77539A7.01557 7.01557 0 01665.54346 251.81494z"></path><rect width="55.873" height="79.887" x="742.314" y="222.358" fill="#a9c0ff" rx="3"></rect><rect width="22.738" height="2" x="751.822" y="243.069" fill="#4d76b8"></rect><rect width="27.154" height="2" x="751.822" y="235.708" fill="#4d76b8"></rect><rect width="37.706" height="2" x="751.822" y="250.43" fill="#456ba3"></rect><rect width="8.194" height="18.63" x="766.578" y="274.566" fill="#fafafa"></rect><rect width="8.194" height="22.249" x="753.125" y="270.947" fill="#fafafa"></rect><rect width="8.194" height="30.894" x="780.03" y="262.302" fill="#fafafa"></rect><path fill="#618ac6" d="M184.03209,305.52561a4.966,4.966,0,0,1-.8744-7.2119L204.584,272.40679a2.28306,2.28306,0,0,1,3.10285-.378l9.33807,6.8267a2.28417,2.28417,0,0,1,.58283,3.07727l-18.20144,28.24751a4.96735,4.96735,0,0,1-7.1159,1.36451l-8.25832-6.01919Zm0,0"></path><path fill="#92b1ef" d="M184.03741,305.51825a4.97089,4.97089,0,0,1-.887-7.20988l21.44-25.90257a2.26931,2.26931,0,0,1,3.09746-.37072l9.3361,6.81412a2.43864,2.43864,0,0,1,.62582.67933l-3.52775-2.57988a2.28126,2.28126,0,0,0-3.0945.38968l-21.43993,25.90256a4.93682,4.93682,0,0,0-.10309,6.25081l-5.44707-3.97345Zm0,0"></path><rect width="102.372" height="102.372" x="175.421" y="204.688" fill="none" transform="rotate(-8.881 226.607 255.874)"></rect><path fill="#4469a0" d="M221.7809,271.20575l-4.737,7.56419-8.87281-6.595,5.67043-6.69824Zm-7.93937-5.72906"></path><path fill="#618ac6" d="M274.911,233.43169a36.4368,36.4368,0,1,0-30.38,41.62A36.45475,36.45475,0,0,0,274.911,233.43169Zm-31.9,32.28a27.00393,27.00393,0,1,1,22.51-30.85A27.0035,27.0035,0,0,1,243.01093,265.71172Z"></path></g></svg>